<mxfile host="app.diagrams.net" modified="2023-05-08T08:05:27.710Z" agent="Mozilla/5.0 (Windows NT 10.0; Win64; x64) AppleWebKit/537.36 (KHTML, like Gecko) Chrome/112.0.0.0 Safari/537.36 Edg/112.0.1722.68" etag="9JSv8WrFf4u0kpCewhpU" version="21.2.9" type="github">
  <diagram name="第 1 页" id="gWeG35e6C86zQD0y6pNc">
    <mxGraphModel dx="1101" dy="591" grid="0" gridSize="10" guides="1" tooltips="1" connect="1" arrows="1" fold="1" page="1" pageScale="1" pageWidth="2336" pageHeight="1654" math="0" shadow="0">
      <root>
        <mxCell id="0" />
        <mxCell id="1" parent="0" />
        <mxCell id="u9Ba9--OEbl625sA4hoY-62" value="" style="rounded=1;whiteSpace=wrap;html=1;dashed=1;fillColor=none;glass=0;" parent="1" vertex="1">
          <mxGeometry x="301" y="551" width="641" height="440" as="geometry" />
        </mxCell>
        <mxCell id="XD2-V8QEW1LzV1P3F_-f-185" value="" style="rounded=1;whiteSpace=wrap;html=1;dashed=1;" parent="1" vertex="1">
          <mxGeometry x="372" y="663" width="126" height="303" as="geometry" />
        </mxCell>
        <mxCell id="XD2-V8QEW1LzV1P3F_-f-189" value="" style="rounded=1;whiteSpace=wrap;html=1;fillStyle=solid;gradientColor=default;fillColor=none;dashed=1;dashPattern=1 2;" parent="1" vertex="1">
          <mxGeometry x="374" y="864" width="255" height="106" as="geometry" />
        </mxCell>
        <mxCell id="XD2-V8QEW1LzV1P3F_-f-17" value="" style="rounded=1;whiteSpace=wrap;html=1;dashed=1;fillColor=none;" parent="1" vertex="1">
          <mxGeometry x="303.5" y="318" width="632.5" height="202" as="geometry" />
        </mxCell>
        <mxCell id="XD2-V8QEW1LzV1P3F_-f-1" value="SNLoss" style="rounded=1;whiteSpace=wrap;html=1;" parent="1" vertex="1">
          <mxGeometry x="558.5" y="97" width="120" height="30" as="geometry" />
        </mxCell>
        <mxCell id="XD2-V8QEW1LzV1P3F_-f-12" style="edgeStyle=orthogonalEdgeStyle;rounded=0;orthogonalLoop=1;jettySize=auto;html=1;entryX=0;entryY=0.5;entryDx=0;entryDy=0;" parent="1" source="XD2-V8QEW1LzV1P3F_-f-3" target="XD2-V8QEW1LzV1P3F_-f-7" edge="1">
          <mxGeometry relative="1" as="geometry">
            <mxPoint x="528" y="165" as="targetPoint" />
            <Array as="points">
              <mxPoint x="561" y="215" />
              <mxPoint x="561" y="215" />
            </Array>
          </mxGeometry>
        </mxCell>
        <mxCell id="XD2-V8QEW1LzV1P3F_-f-3" value="" style="rounded=1;whiteSpace=wrap;html=1;fillColor=#f8cecc;strokeColor=#b85450;" parent="1" vertex="1">
          <mxGeometry x="475" y="201" width="60" height="30" as="geometry" />
        </mxCell>
        <mxCell id="XD2-V8QEW1LzV1P3F_-f-13" style="edgeStyle=orthogonalEdgeStyle;rounded=0;orthogonalLoop=1;jettySize=auto;html=1;entryX=1;entryY=0.5;entryDx=0;entryDy=0;" parent="1" source="XD2-V8QEW1LzV1P3F_-f-5" target="XD2-V8QEW1LzV1P3F_-f-7" edge="1">
          <mxGeometry relative="1" as="geometry">
            <Array as="points">
              <mxPoint x="672" y="215" />
              <mxPoint x="672" y="215" />
            </Array>
          </mxGeometry>
        </mxCell>
        <mxCell id="XD2-V8QEW1LzV1P3F_-f-5" value="" style="rounded=1;whiteSpace=wrap;html=1;fillColor=#d5e8d4;strokeColor=#82b366;" parent="1" vertex="1">
          <mxGeometry x="704" y="200.22" width="60" height="30" as="geometry" />
        </mxCell>
        <mxCell id="XD2-V8QEW1LzV1P3F_-f-8" style="edgeStyle=orthogonalEdgeStyle;rounded=0;orthogonalLoop=1;jettySize=auto;html=1;entryX=0.5;entryY=1;entryDx=0;entryDy=0;" parent="1" source="XD2-V8QEW1LzV1P3F_-f-6" target="XD2-V8QEW1LzV1P3F_-f-1" edge="1">
          <mxGeometry relative="1" as="geometry" />
        </mxCell>
        <mxCell id="XD2-V8QEW1LzV1P3F_-f-6" value="FFN" style="rounded=1;whiteSpace=wrap;html=1;" parent="1" vertex="1">
          <mxGeometry x="590" y="153" width="57" height="22" as="geometry" />
        </mxCell>
        <mxCell id="XD2-V8QEW1LzV1P3F_-f-7" value="" style="ellipse;whiteSpace=wrap;html=1;aspect=fixed;" parent="1" vertex="1">
          <mxGeometry x="598.5" y="195.22" width="40" height="40" as="geometry" />
        </mxCell>
        <mxCell id="XD2-V8QEW1LzV1P3F_-f-10" value="" style="endArrow=none;html=1;rounded=0;entryX=0;entryY=0;entryDx=0;entryDy=0;exitX=1;exitY=1;exitDx=0;exitDy=0;" parent="1" source="XD2-V8QEW1LzV1P3F_-f-7" target="XD2-V8QEW1LzV1P3F_-f-7" edge="1">
          <mxGeometry width="50" height="50" relative="1" as="geometry">
            <mxPoint x="668.5" y="230.22" as="sourcePoint" />
            <mxPoint x="718.5" y="180.22" as="targetPoint" />
          </mxGeometry>
        </mxCell>
        <mxCell id="XD2-V8QEW1LzV1P3F_-f-11" value="" style="endArrow=none;html=1;rounded=0;entryX=1;entryY=0;entryDx=0;entryDy=0;exitX=0;exitY=1;exitDx=0;exitDy=0;" parent="1" source="XD2-V8QEW1LzV1P3F_-f-7" target="XD2-V8QEW1LzV1P3F_-f-7" edge="1">
          <mxGeometry width="50" height="50" relative="1" as="geometry">
            <mxPoint x="668.5" y="230.22" as="sourcePoint" />
            <mxPoint x="718.5" y="180.22" as="targetPoint" />
          </mxGeometry>
        </mxCell>
        <mxCell id="XD2-V8QEW1LzV1P3F_-f-14" value="DHTT Block" style="rounded=1;whiteSpace=wrap;html=1;" parent="1" vertex="1">
          <mxGeometry x="452.25" y="256" width="335" height="30" as="geometry" />
        </mxCell>
        <mxCell id="XD2-V8QEW1LzV1P3F_-f-15" value="" style="endArrow=classic;html=1;rounded=0;entryX=0.5;entryY=1;entryDx=0;entryDy=0;" parent="1" target="XD2-V8QEW1LzV1P3F_-f-3" edge="1">
          <mxGeometry width="50" height="50" relative="1" as="geometry">
            <mxPoint x="505" y="256" as="sourcePoint" />
            <mxPoint x="650" y="187" as="targetPoint" />
          </mxGeometry>
        </mxCell>
        <mxCell id="XD2-V8QEW1LzV1P3F_-f-16" value="" style="endArrow=none;dashed=1;html=1;dashPattern=1 3;strokeWidth=2;rounded=0;entryX=0.63;entryY=0.026;entryDx=0;entryDy=0;entryPerimeter=0;" parent="1" edge="1">
          <mxGeometry width="50" height="50" relative="1" as="geometry">
            <mxPoint x="734.5" y="230.22" as="sourcePoint" />
            <mxPoint x="734.5500000000002" y="255.99999999999997" as="targetPoint" />
          </mxGeometry>
        </mxCell>
        <mxCell id="XD2-V8QEW1LzV1P3F_-f-60" style="edgeStyle=orthogonalEdgeStyle;rounded=0;orthogonalLoop=1;jettySize=auto;html=1;entryX=0.5;entryY=1;entryDx=0;entryDy=0;" parent="1" source="XD2-V8QEW1LzV1P3F_-f-20" target="XD2-V8QEW1LzV1P3F_-f-57" edge="1">
          <mxGeometry relative="1" as="geometry" />
        </mxCell>
        <mxCell id="XD2-V8QEW1LzV1P3F_-f-20" value="HSAA" style="rounded=1;whiteSpace=wrap;html=1;fillColor=#dae8fc;strokeColor=#6c8ebf;" parent="1" vertex="1">
          <mxGeometry x="380.87" y="598" width="546.13" height="30" as="geometry" />
        </mxCell>
        <mxCell id="XD2-V8QEW1LzV1P3F_-f-46" style="edgeStyle=orthogonalEdgeStyle;rounded=0;orthogonalLoop=1;jettySize=auto;html=1;entryX=0.5;entryY=1;entryDx=0;entryDy=0;" parent="1" target="XD2-V8QEW1LzV1P3F_-f-45" edge="1">
          <mxGeometry relative="1" as="geometry">
            <mxPoint x="434.28571428571433" y="809" as="sourcePoint" />
          </mxGeometry>
        </mxCell>
        <mxCell id="XD2-V8QEW1LzV1P3F_-f-21" value="HSAA" style="rounded=1;whiteSpace=wrap;html=1;fillColor=#dae8fc;strokeColor=#6c8ebf;" parent="1" vertex="1">
          <mxGeometry x="382.5" y="809" width="111.63" height="30" as="geometry" />
        </mxCell>
        <mxCell id="XD2-V8QEW1LzV1P3F_-f-55" style="edgeStyle=orthogonalEdgeStyle;rounded=0;orthogonalLoop=1;jettySize=auto;html=1;entryX=0;entryY=0.5;entryDx=0;entryDy=0;" parent="1" target="XD2-V8QEW1LzV1P3F_-f-21" edge="1">
          <mxGeometry relative="1" as="geometry">
            <Array as="points">
              <mxPoint x="341" y="824" />
            </Array>
            <mxPoint x="340.9655172413793" y="871" as="sourcePoint" />
          </mxGeometry>
        </mxCell>
        <mxCell id="XD2-V8QEW1LzV1P3F_-f-62" style="edgeStyle=orthogonalEdgeStyle;rounded=0;orthogonalLoop=1;jettySize=auto;html=1;dashed=1;dashPattern=1 2;" parent="1" target="XD2-V8QEW1LzV1P3F_-f-63" edge="1">
          <mxGeometry relative="1" as="geometry">
            <mxPoint x="317" y="602.0344827586208" as="targetPoint" />
            <Array as="points">
              <mxPoint x="275" y="901" />
              <mxPoint x="275" y="576" />
            </Array>
            <mxPoint x="317" y="901.5172413793105" as="sourcePoint" />
          </mxGeometry>
        </mxCell>
        <mxCell id="XD2-V8QEW1LzV1P3F_-f-56" style="edgeStyle=orthogonalEdgeStyle;rounded=0;orthogonalLoop=1;jettySize=auto;html=1;entryX=0;entryY=0.5;entryDx=0;entryDy=0;exitX=0.481;exitY=0.006;exitDx=0;exitDy=0;exitPerimeter=0;" parent="1" target="XD2-V8QEW1LzV1P3F_-f-20" edge="1">
          <mxGeometry relative="1" as="geometry">
            <Array as="points">
              <mxPoint x="341" y="613" />
            </Array>
            <mxPoint x="341.04999999999995" y="871.366" as="sourcePoint" />
          </mxGeometry>
        </mxCell>
        <mxCell id="u9Ba9--OEbl625sA4hoY-119" style="edgeStyle=orthogonalEdgeStyle;rounded=0;orthogonalLoop=1;jettySize=auto;html=1;entryX=0.5;entryY=1;entryDx=0;entryDy=0;" parent="1" source="XD2-V8QEW1LzV1P3F_-f-45" target="u9Ba9--OEbl625sA4hoY-112" edge="1">
          <mxGeometry relative="1" as="geometry" />
        </mxCell>
        <mxCell id="XD2-V8QEW1LzV1P3F_-f-45" value="FFN" style="rounded=1;whiteSpace=wrap;html=1;" parent="1" vertex="1">
          <mxGeometry x="405.82" y="775" width="57" height="22" as="geometry" />
        </mxCell>
        <mxCell id="XD2-V8QEW1LzV1P3F_-f-52" value="" style="endArrow=classic;html=1;rounded=0;exitX=0.217;exitY=-0.001;exitDx=0;exitDy=0;exitPerimeter=0;entryX=0.174;entryY=0.976;entryDx=0;entryDy=0;entryPerimeter=0;" parent="1" target="XD2-V8QEW1LzV1P3F_-f-21" edge="1">
          <mxGeometry width="50" height="50" relative="1" as="geometry">
            <mxPoint x="401.95500000000004" y="870.9390000000001" as="sourcePoint" />
            <mxPoint x="473" y="832" as="targetPoint" />
          </mxGeometry>
        </mxCell>
        <mxCell id="XD2-V8QEW1LzV1P3F_-f-53" value="" style="endArrow=classic;html=1;rounded=0;exitX=0.75;exitY=0;exitDx=0;exitDy=0;entryX=0.725;entryY=0.998;entryDx=0;entryDy=0;entryPerimeter=0;" parent="1" target="XD2-V8QEW1LzV1P3F_-f-21" edge="1">
          <mxGeometry width="50" height="50" relative="1" as="geometry">
            <mxPoint x="463.25" y="871" as="sourcePoint" />
            <mxPoint x="447" y="816" as="targetPoint" />
          </mxGeometry>
        </mxCell>
        <mxCell id="XD2-V8QEW1LzV1P3F_-f-66" style="edgeStyle=orthogonalEdgeStyle;rounded=0;orthogonalLoop=1;jettySize=auto;html=1;entryX=1;entryY=0.5;entryDx=0;entryDy=0;" parent="1" source="XD2-V8QEW1LzV1P3F_-f-57" target="XD2-V8QEW1LzV1P3F_-f-63" edge="1">
          <mxGeometry relative="1" as="geometry">
            <Array as="points">
              <mxPoint x="494.87" y="576" />
              <mxPoint x="418.87" y="576" />
            </Array>
          </mxGeometry>
        </mxCell>
        <mxCell id="XD2-V8QEW1LzV1P3F_-f-57" value="FFN" style="rounded=1;whiteSpace=wrap;html=1;" parent="1" vertex="1">
          <mxGeometry x="466.68" y="563" width="57" height="22" as="geometry" />
        </mxCell>
        <mxCell id="u9Ba9--OEbl625sA4hoY-222" style="edgeStyle=orthogonalEdgeStyle;rounded=0;orthogonalLoop=1;jettySize=auto;html=1;entryX=0.6;entryY=0.995;entryDx=0;entryDy=0;entryPerimeter=0;" parent="1" source="XD2-V8QEW1LzV1P3F_-f-63" target="XD2-V8QEW1LzV1P3F_-f-67" edge="1">
          <mxGeometry relative="1" as="geometry" />
        </mxCell>
        <mxCell id="XD2-V8QEW1LzV1P3F_-f-63" value="" style="ellipse;whiteSpace=wrap;html=1;aspect=fixed;" parent="1" vertex="1">
          <mxGeometry x="335.87" y="558" width="35" height="35" as="geometry" />
        </mxCell>
        <mxCell id="XD2-V8QEW1LzV1P3F_-f-64" value="" style="endArrow=none;html=1;rounded=0;entryX=0.5;entryY=0;entryDx=0;entryDy=0;exitX=0.5;exitY=1;exitDx=0;exitDy=0;" parent="1" source="XD2-V8QEW1LzV1P3F_-f-63" target="XD2-V8QEW1LzV1P3F_-f-63" edge="1">
          <mxGeometry width="50" height="50" relative="1" as="geometry">
            <mxPoint x="394.87" y="653" as="sourcePoint" />
            <mxPoint x="444.87" y="603" as="targetPoint" />
          </mxGeometry>
        </mxCell>
        <mxCell id="XD2-V8QEW1LzV1P3F_-f-65" value="" style="endArrow=none;html=1;rounded=0;exitX=1;exitY=0.5;exitDx=0;exitDy=0;entryX=0;entryY=0.5;entryDx=0;entryDy=0;" parent="1" source="XD2-V8QEW1LzV1P3F_-f-63" target="XD2-V8QEW1LzV1P3F_-f-63" edge="1">
          <mxGeometry width="50" height="50" relative="1" as="geometry">
            <mxPoint x="363.87" y="603" as="sourcePoint" />
            <mxPoint x="363.87" y="568" as="targetPoint" />
          </mxGeometry>
        </mxCell>
        <mxCell id="XD2-V8QEW1LzV1P3F_-f-191" style="edgeStyle=orthogonalEdgeStyle;rounded=0;orthogonalLoop=1;jettySize=auto;html=1;entryX=0;entryY=0.5;entryDx=0;entryDy=0;dashed=1;dashPattern=1 2;" parent="1" source="XD2-V8QEW1LzV1P3F_-f-67" target="XD2-V8QEW1LzV1P3F_-f-141" edge="1">
          <mxGeometry relative="1" as="geometry">
            <Array as="points">
              <mxPoint x="275" y="443" />
              <mxPoint x="275" y="340" />
            </Array>
          </mxGeometry>
        </mxCell>
        <mxCell id="XD2-V8QEW1LzV1P3F_-f-67" value="" style="rounded=1;whiteSpace=wrap;html=1;" parent="1" vertex="1">
          <mxGeometry x="323.5" y="413" width="50" height="90" as="geometry" />
        </mxCell>
        <mxCell id="XD2-V8QEW1LzV1P3F_-f-68" value="" style="rounded=1;whiteSpace=wrap;html=1;fillColor=#f8cecc;strokeColor=#b85450;" parent="1" vertex="1">
          <mxGeometry x="327.87" y="481" width="41" height="14" as="geometry" />
        </mxCell>
        <mxCell id="XD2-V8QEW1LzV1P3F_-f-69" value="" style="rounded=1;whiteSpace=wrap;html=1;fillColor=#fff2cc;strokeColor=#d6b656;" parent="1" vertex="1">
          <mxGeometry x="327.87" y="418" width="41" height="21" as="geometry" />
        </mxCell>
        <mxCell id="XD2-V8QEW1LzV1P3F_-f-71" value="Layer1" style="text;html=1;strokeColor=none;fillColor=none;align=center;verticalAlign=middle;whiteSpace=wrap;rounded=0;rotation=-90;" parent="1" vertex="1">
          <mxGeometry x="291.00000000000006" y="692" width="60" height="30" as="geometry" />
        </mxCell>
        <mxCell id="XD2-V8QEW1LzV1P3F_-f-72" value="Layer2" style="text;html=1;strokeColor=none;fillColor=none;align=center;verticalAlign=middle;whiteSpace=wrap;rounded=0;rotation=-90;" parent="1" vertex="1">
          <mxGeometry x="291" y="367" width="60" height="30" as="geometry" />
        </mxCell>
        <mxCell id="XD2-V8QEW1LzV1P3F_-f-73" value="" style="endArrow=none;dashed=1;html=1;dashPattern=1 3;strokeWidth=2;rounded=0;entryX=0.63;entryY=0.026;entryDx=0;entryDy=0;entryPerimeter=0;" parent="1" edge="1">
          <mxGeometry width="50" height="50" relative="1" as="geometry">
            <mxPoint x="616" y="288" as="sourcePoint" />
            <mxPoint x="615.9300000000001" y="318" as="targetPoint" />
          </mxGeometry>
        </mxCell>
        <mxCell id="XD2-V8QEW1LzV1P3F_-f-75" value="u&lt;span style=&quot;font-size: 10px;&quot;&gt;&lt;sub&gt;1&lt;/sub&gt;&lt;/span&gt;" style="ellipse;whiteSpace=wrap;html=1;aspect=fixed;fontFamily=Times New Roman;fillColor=#f8cecc;strokeColor=#b85450;rotation=-90;" parent="1" vertex="1">
          <mxGeometry x="540.5" y="1116" width="44" height="44" as="geometry" />
        </mxCell>
        <mxCell id="XD2-V8QEW1LzV1P3F_-f-76" value="u&lt;sub&gt;2&lt;/sub&gt;" style="ellipse;whiteSpace=wrap;html=1;aspect=fixed;fontFamily=Times New Roman;opacity=50;fillColor=#f8cecc;strokeColor=#b85450;rotation=-90;" parent="1" vertex="1">
          <mxGeometry x="602" y="1116" width="44" height="44" as="geometry" />
        </mxCell>
        <mxCell id="XD2-V8QEW1LzV1P3F_-f-77" value="u&lt;sub&gt;3&lt;/sub&gt;" style="ellipse;whiteSpace=wrap;html=1;aspect=fixed;fontFamily=Times New Roman;fillColor=#f8cecc;strokeColor=#b85450;opacity=50;rotation=-90;" parent="1" vertex="1">
          <mxGeometry x="666" y="1116" width="44" height="44" as="geometry" />
        </mxCell>
        <mxCell id="XD2-V8QEW1LzV1P3F_-f-80" value="i&lt;sub&gt;6&lt;/sub&gt;" style="ellipse;whiteSpace=wrap;html=1;aspect=fixed;fontFamily=Times New Roman;fillColor=#d5e8d4;strokeColor=#82b366;rotation=-90;" parent="1" vertex="1">
          <mxGeometry x="761" y="1198" width="44" height="44" as="geometry" />
        </mxCell>
        <mxCell id="XD2-V8QEW1LzV1P3F_-f-85" value="i&lt;sub&gt;5&lt;/sub&gt;" style="ellipse;whiteSpace=wrap;html=1;aspect=fixed;fontFamily=Times New Roman;opacity=50;fillColor=#d5e8d4;strokeColor=#82b366;rotation=-90;" parent="1" vertex="1">
          <mxGeometry x="701" y="1198" width="44" height="44" as="geometry" />
        </mxCell>
        <mxCell id="XD2-V8QEW1LzV1P3F_-f-90" value="" style="endArrow=none;html=1;rounded=0;exitX=0.5;exitY=0;exitDx=0;exitDy=0;entryX=0.5;entryY=1;entryDx=0;entryDy=0;" parent="1" edge="1">
          <mxGeometry width="50" height="50" relative="1" as="geometry">
            <mxPoint x="478.5" y="1198" as="sourcePoint" />
            <mxPoint x="562.5" y="1160" as="targetPoint" />
          </mxGeometry>
        </mxCell>
        <mxCell id="XD2-V8QEW1LzV1P3F_-f-91" value="" style="endArrow=none;html=1;rounded=0;exitX=1;exitY=0.5;exitDx=0;exitDy=0;entryX=0;entryY=0.5;entryDx=0;entryDy=0;" parent="1" source="XD2-V8QEW1LzV1P3F_-f-82" target="XD2-V8QEW1LzV1P3F_-f-75" edge="1">
          <mxGeometry width="50" height="50" relative="1" as="geometry">
            <mxPoint x="488.5" y="1208" as="sourcePoint" />
            <mxPoint x="560.5" y="1159" as="targetPoint" />
          </mxGeometry>
        </mxCell>
        <mxCell id="XD2-V8QEW1LzV1P3F_-f-92" value="" style="endArrow=none;html=1;rounded=0;exitX=1;exitY=0.5;exitDx=0;exitDy=0;entryX=0;entryY=0.5;entryDx=0;entryDy=0;" parent="1" source="XD2-V8QEW1LzV1P3F_-f-83" target="XD2-V8QEW1LzV1P3F_-f-75" edge="1">
          <mxGeometry width="50" height="50" relative="1" as="geometry">
            <mxPoint x="549.5" y="1208" as="sourcePoint" />
            <mxPoint x="584" y="1138" as="targetPoint" />
          </mxGeometry>
        </mxCell>
        <mxCell id="XD2-V8QEW1LzV1P3F_-f-93" value="" style="endArrow=none;html=1;rounded=0;entryX=0;entryY=0.5;entryDx=0;entryDy=0;exitX=1;exitY=0.5;exitDx=0;exitDy=0;" parent="1" source="XD2-V8QEW1LzV1P3F_-f-84" target="XD2-V8QEW1LzV1P3F_-f-75" edge="1">
          <mxGeometry width="50" height="50" relative="1" as="geometry">
            <mxPoint x="646" y="1202" as="sourcePoint" />
            <mxPoint x="605" y="1164" as="targetPoint" />
          </mxGeometry>
        </mxCell>
        <mxCell id="XD2-V8QEW1LzV1P3F_-f-101" style="edgeStyle=orthogonalEdgeStyle;rounded=0;orthogonalLoop=1;jettySize=auto;html=1;entryX=0.542;entryY=1.007;entryDx=0;entryDy=0;entryPerimeter=0;" parent="1" source="XD2-V8QEW1LzV1P3F_-f-94" target="u9Ba9--OEbl625sA4hoY-120" edge="1">
          <mxGeometry relative="1" as="geometry">
            <mxPoint x="342" y="932" as="targetPoint" />
          </mxGeometry>
        </mxCell>
        <mxCell id="XD2-V8QEW1LzV1P3F_-f-94" value="u&lt;span style=&quot;font-size: 10px;&quot;&gt;&lt;sub&gt;1&lt;/sub&gt;&lt;/span&gt;" style="ellipse;whiteSpace=wrap;html=1;aspect=fixed;fontFamily=Times New Roman;fillColor=#f8cecc;strokeColor=#b85450;rotation=-90;" parent="1" vertex="1">
          <mxGeometry x="320" y="1049" width="44" height="44" as="geometry" />
        </mxCell>
        <mxCell id="XD2-V8QEW1LzV1P3F_-f-95" value="" style="endArrow=none;html=1;rounded=0;exitX=1;exitY=0.5;exitDx=0;exitDy=0;dashed=1;fillColor=#dae8fc;strokeColor=#6c8ebf;entryX=0;entryY=0.5;entryDx=0;entryDy=0;" parent="1" source="XD2-V8QEW1LzV1P3F_-f-80" target="XD2-V8QEW1LzV1P3F_-f-75" edge="1">
          <mxGeometry width="50" height="50" relative="1" as="geometry">
            <mxPoint x="776.5" y="1194" as="sourcePoint" />
            <mxPoint x="584" y="1138" as="targetPoint" />
          </mxGeometry>
        </mxCell>
        <mxCell id="XD2-V8QEW1LzV1P3F_-f-102" style="edgeStyle=orthogonalEdgeStyle;rounded=0;orthogonalLoop=1;jettySize=auto;html=1;entryX=0.216;entryY=1.017;entryDx=0;entryDy=0;entryPerimeter=0;" parent="1" source="XD2-V8QEW1LzV1P3F_-f-96" target="u9Ba9--OEbl625sA4hoY-125" edge="1">
          <mxGeometry relative="1" as="geometry">
            <mxPoint x="401.725" y="932.366" as="targetPoint" />
          </mxGeometry>
        </mxCell>
        <mxCell id="XD2-V8QEW1LzV1P3F_-f-96" value="i&lt;span style=&quot;font-size: 10px;&quot;&gt;&lt;sub&gt;1&lt;/sub&gt;&lt;/span&gt;" style="ellipse;whiteSpace=wrap;html=1;aspect=fixed;fontFamily=Times New Roman;fillColor=#d5e8d4;strokeColor=#82b366;rotation=-90;" parent="1" vertex="1">
          <mxGeometry x="380" y="1049" width="44" height="44" as="geometry" />
        </mxCell>
        <mxCell id="XD2-V8QEW1LzV1P3F_-f-104" style="edgeStyle=orthogonalEdgeStyle;rounded=0;orthogonalLoop=1;jettySize=auto;html=1;entryX=0.25;entryY=1;entryDx=0;entryDy=0;" parent="1" source="XD2-V8QEW1LzV1P3F_-f-97" target="u9Ba9--OEbl625sA4hoY-147" edge="1">
          <mxGeometry relative="1" as="geometry">
            <mxPoint x="533.9549999999999" y="932.854" as="targetPoint" />
          </mxGeometry>
        </mxCell>
        <mxCell id="XD2-V8QEW1LzV1P3F_-f-97" value="i&lt;sub&gt;2&lt;/sub&gt;" style="ellipse;whiteSpace=wrap;html=1;aspect=fixed;fontFamily=Times New Roman;fillColor=#d5e8d4;strokeColor=#82b366;rotation=-90;" parent="1" vertex="1">
          <mxGeometry x="512" y="1049" width="44" height="44" as="geometry" />
        </mxCell>
        <mxCell id="XD2-V8QEW1LzV1P3F_-f-103" style="edgeStyle=orthogonalEdgeStyle;rounded=0;orthogonalLoop=1;jettySize=auto;html=1;entryX=0.771;entryY=1.01;entryDx=0;entryDy=0;entryPerimeter=0;" parent="1" source="XD2-V8QEW1LzV1P3F_-f-98" target="u9Ba9--OEbl625sA4hoY-125" edge="1">
          <mxGeometry relative="1" as="geometry">
            <mxPoint x="466.47" y="932.6100000000001" as="targetPoint" />
          </mxGeometry>
        </mxCell>
        <mxCell id="XD2-V8QEW1LzV1P3F_-f-98" value="i&lt;span style=&quot;font-size: 10px;&quot;&gt;&lt;sub&gt;4&lt;/sub&gt;&lt;/span&gt;" style="ellipse;whiteSpace=wrap;html=1;aspect=fixed;fontFamily=Times New Roman;fillColor=#d5e8d4;strokeColor=#82b366;rotation=-90;" parent="1" vertex="1">
          <mxGeometry x="444.5" y="1049" width="44" height="44" as="geometry" />
        </mxCell>
        <mxCell id="XD2-V8QEW1LzV1P3F_-f-105" style="edgeStyle=orthogonalEdgeStyle;rounded=0;orthogonalLoop=1;jettySize=auto;html=1;entryX=0.81;entryY=0.999;entryDx=0;entryDy=0;entryPerimeter=0;" parent="1" source="XD2-V8QEW1LzV1P3F_-f-99" target="u9Ba9--OEbl625sA4hoY-147" edge="1">
          <mxGeometry relative="1" as="geometry">
            <mxPoint x="599.39" y="931.8780000000002" as="targetPoint" />
          </mxGeometry>
        </mxCell>
        <mxCell id="XD2-V8QEW1LzV1P3F_-f-99" value="i&lt;sub&gt;3&lt;/sub&gt;" style="ellipse;whiteSpace=wrap;html=1;aspect=fixed;fontFamily=Times New Roman;fillColor=#d5e8d4;strokeColor=#82b366;rotation=-90;" parent="1" vertex="1">
          <mxGeometry x="576.5" y="1049" width="44" height="44" as="geometry" />
        </mxCell>
        <mxCell id="XD2-V8QEW1LzV1P3F_-f-106" value="&lt;font style=&quot;font-size: 11px;&quot; face=&quot;Times New Roman&quot;&gt;t&lt;sub style=&quot;font-size: 11px;&quot;&gt;1&lt;/sub&gt;&lt;/font&gt;" style="text;html=1;align=center;verticalAlign=middle;resizable=0;points=[];autosize=1;strokeColor=none;fillColor=none;rotation=-90;" parent="1" vertex="1">
          <mxGeometry x="461" y="1173" width="27" height="30" as="geometry" />
        </mxCell>
        <mxCell id="XD2-V8QEW1LzV1P3F_-f-107" value="&lt;font style=&quot;font-size: 11px;&quot; face=&quot;Times New Roman&quot;&gt;t&lt;sub style=&quot;font-size: 11px;&quot;&gt;5&lt;/sub&gt;&lt;/font&gt;" style="text;html=1;align=center;verticalAlign=middle;resizable=0;points=[];autosize=1;strokeColor=none;fillColor=none;rotation=-90;" parent="1" vertex="1">
          <mxGeometry x="655.5" y="1173" width="27" height="30" as="geometry" />
        </mxCell>
        <mxCell id="XD2-V8QEW1LzV1P3F_-f-108" value="&lt;font style=&quot;font-size: 11px;&quot; face=&quot;Times New Roman&quot;&gt;t&lt;sub style=&quot;font-size: 11px;&quot;&gt;4&lt;/sub&gt;&lt;/font&gt;" style="text;html=1;align=center;verticalAlign=middle;resizable=0;points=[];autosize=1;strokeColor=none;fillColor=none;rotation=-90;" parent="1" vertex="1">
          <mxGeometry x="591.31" y="1173" width="27" height="30" as="geometry" />
        </mxCell>
        <mxCell id="XD2-V8QEW1LzV1P3F_-f-109" value="&lt;font style=&quot;font-size: 11px;&quot; face=&quot;Times New Roman&quot;&gt;t&lt;sub&gt;2&lt;/sub&gt;&lt;/font&gt;" style="text;html=1;align=center;verticalAlign=middle;resizable=0;points=[];autosize=1;strokeColor=none;fillColor=none;rotation=-90;" parent="1" vertex="1">
          <mxGeometry x="545" y="1173" width="27" height="30" as="geometry" />
        </mxCell>
        <mxCell id="XD2-V8QEW1LzV1P3F_-f-110" value="&lt;font style=&quot;font-size: 11px;&quot; face=&quot;Times New Roman&quot;&gt;t&lt;sub&gt;7&lt;/sub&gt;&lt;/font&gt;" style="text;html=1;align=center;verticalAlign=middle;resizable=0;points=[];autosize=1;strokeColor=none;fillColor=none;rotation=-90;" parent="1" vertex="1">
          <mxGeometry x="772.5" y="1173" width="27" height="30" as="geometry" />
        </mxCell>
        <mxCell id="XD2-V8QEW1LzV1P3F_-f-111" value="&lt;font style=&quot;font-size: 11px;&quot; face=&quot;Times New Roman&quot;&gt;t7&lt;/font&gt;" style="text;html=1;align=center;verticalAlign=middle;resizable=0;points=[];autosize=1;strokeColor=none;fillColor=none;rotation=-90;" parent="1" vertex="1">
          <mxGeometry x="320" y="1021" width="27" height="27" as="geometry" />
        </mxCell>
        <mxCell id="XD2-V8QEW1LzV1P3F_-f-112" value="&lt;font style=&quot;font-size: 11px;&quot; face=&quot;Times New Roman&quot;&gt;t&lt;sub style=&quot;font-size: 11px;&quot;&gt;1&lt;/sub&gt;&lt;/font&gt;" style="text;html=1;align=center;verticalAlign=middle;resizable=0;points=[];autosize=1;strokeColor=none;fillColor=none;rotation=-90;" parent="1" vertex="1">
          <mxGeometry x="380" y="1018" width="27" height="30" as="geometry" />
        </mxCell>
        <mxCell id="XD2-V8QEW1LzV1P3F_-f-113" value="&lt;font style=&quot;font-size: 11px;&quot; face=&quot;Times New Roman&quot;&gt;t&lt;sub style=&quot;font-size: 11px;&quot;&gt;5&lt;/sub&gt;&lt;/font&gt;" style="text;html=1;align=center;verticalAlign=middle;resizable=0;points=[];autosize=1;strokeColor=none;fillColor=none;rotation=-90;" parent="1" vertex="1">
          <mxGeometry x="442" y="1018" width="27" height="30" as="geometry" />
        </mxCell>
        <mxCell id="XD2-V8QEW1LzV1P3F_-f-114" value="&lt;font style=&quot;font-size: 11px;&quot; face=&quot;Times New Roman&quot;&gt;t&lt;sub&gt;2&lt;/sub&gt;&lt;/font&gt;" style="text;html=1;align=center;verticalAlign=middle;resizable=0;points=[];autosize=1;strokeColor=none;fillColor=none;rotation=-90;" parent="1" vertex="1">
          <mxGeometry x="508" y="1018" width="27" height="30" as="geometry" />
        </mxCell>
        <mxCell id="XD2-V8QEW1LzV1P3F_-f-115" value="&lt;font style=&quot;font-size: 11px;&quot; face=&quot;Times New Roman&quot;&gt;t&lt;sub style=&quot;font-size: 11px;&quot;&gt;4&lt;/sub&gt;&lt;/font&gt;" style="text;html=1;align=center;verticalAlign=middle;resizable=0;points=[];autosize=1;strokeColor=none;fillColor=none;rotation=-90;" parent="1" vertex="1">
          <mxGeometry x="571.5" y="1018" width="27" height="30" as="geometry" />
        </mxCell>
        <mxCell id="XD2-V8QEW1LzV1P3F_-f-116" value="" style="endArrow=none;html=1;rounded=0;exitX=1;exitY=0.5;exitDx=0;exitDy=0;entryX=0;entryY=0.5;entryDx=0;entryDy=0;opacity=20;" parent="1" source="XD2-V8QEW1LzV1P3F_-f-82" target="XD2-V8QEW1LzV1P3F_-f-76" edge="1">
          <mxGeometry width="50" height="50" relative="1" as="geometry">
            <mxPoint x="613.5" y="1208" as="sourcePoint" />
            <mxPoint x="572.5" y="1170" as="targetPoint" />
          </mxGeometry>
        </mxCell>
        <mxCell id="XD2-V8QEW1LzV1P3F_-f-117" value="" style="endArrow=none;html=1;rounded=0;entryX=0;entryY=0.5;entryDx=0;entryDy=0;opacity=20;exitX=1;exitY=0.5;exitDx=0;exitDy=0;" parent="1" source="XD2-V8QEW1LzV1P3F_-f-84" target="XD2-V8QEW1LzV1P3F_-f-76" edge="1">
          <mxGeometry width="50" height="50" relative="1" as="geometry">
            <mxPoint x="549.5" y="1208" as="sourcePoint" />
            <mxPoint x="634.5" y="1170" as="targetPoint" />
          </mxGeometry>
        </mxCell>
        <mxCell id="XD2-V8QEW1LzV1P3F_-f-118" value="" style="endArrow=none;html=1;rounded=0;opacity=20;exitX=1;exitY=0.5;exitDx=0;exitDy=0;" parent="1" source="XD2-V8QEW1LzV1P3F_-f-85" edge="1">
          <mxGeometry width="50" height="50" relative="1" as="geometry">
            <mxPoint x="703.5" y="1196" as="sourcePoint" />
            <mxPoint x="623.5" y="1160" as="targetPoint" />
          </mxGeometry>
        </mxCell>
        <mxCell id="XD2-V8QEW1LzV1P3F_-f-119" value="" style="endArrow=none;html=1;rounded=0;opacity=20;entryX=0;entryY=0.5;entryDx=0;entryDy=0;exitX=1;exitY=0.5;exitDx=0;exitDy=0;" parent="1" source="XD2-V8QEW1LzV1P3F_-f-80" target="XD2-V8QEW1LzV1P3F_-f-77" edge="1">
          <mxGeometry width="50" height="50" relative="1" as="geometry">
            <mxPoint x="805" y="1203" as="sourcePoint" />
            <mxPoint x="705" y="1165" as="targetPoint" />
          </mxGeometry>
        </mxCell>
        <mxCell id="XD2-V8QEW1LzV1P3F_-f-120" value="" style="endArrow=none;html=1;rounded=0;opacity=20;exitX=1;exitY=0.5;exitDx=0;exitDy=0;" parent="1" source="XD2-V8QEW1LzV1P3F_-f-85" edge="1">
          <mxGeometry width="50" height="50" relative="1" as="geometry">
            <mxPoint x="793.5" y="1208" as="sourcePoint" />
            <mxPoint x="688.5" y="1160" as="targetPoint" />
          </mxGeometry>
        </mxCell>
        <mxCell id="XD2-V8QEW1LzV1P3F_-f-121" value="" style="endArrow=none;html=1;rounded=0;opacity=20;entryX=0;entryY=0.5;entryDx=0;entryDy=0;" parent="1" target="XD2-V8QEW1LzV1P3F_-f-77" edge="1">
          <mxGeometry width="50" height="50" relative="1" as="geometry">
            <mxPoint x="603.5" y="1198" as="sourcePoint" />
            <mxPoint x="698.5" y="1170" as="targetPoint" />
          </mxGeometry>
        </mxCell>
        <mxCell id="XD2-V8QEW1LzV1P3F_-f-122" value="" style="endArrow=none;html=1;rounded=0;opacity=20;entryX=1;entryY=0.5;entryDx=0;entryDy=0;exitX=0;exitY=0.5;exitDx=0;exitDy=0;" parent="1" source="XD2-V8QEW1LzV1P3F_-f-77" target="XD2-V8QEW1LzV1P3F_-f-81" edge="1">
          <mxGeometry width="50" height="50" relative="1" as="geometry">
            <mxPoint x="793.5" y="1208" as="sourcePoint" />
            <mxPoint x="698.5" y="1170" as="targetPoint" />
          </mxGeometry>
        </mxCell>
        <mxCell id="XD2-V8QEW1LzV1P3F_-f-123" value="" style="rounded=1;whiteSpace=wrap;html=1;" parent="1" vertex="1">
          <mxGeometry x="386" y="413" width="115" height="91" as="geometry" />
        </mxCell>
        <mxCell id="XD2-V8QEW1LzV1P3F_-f-128" value="" style="endArrow=none;dashed=1;html=1;dashPattern=1 3;strokeWidth=2;rounded=0;entryX=1;entryY=0.5;entryDx=0;entryDy=0;exitX=0;exitY=0.5;exitDx=0;exitDy=0;" parent="1" edge="1">
          <mxGeometry width="50" height="50" relative="1" as="geometry">
            <mxPoint x="452.25" y="468.88" as="sourcePoint" />
            <mxPoint x="428.7499999999999" y="468.88" as="targetPoint" />
          </mxGeometry>
        </mxCell>
        <mxCell id="XD2-V8QEW1LzV1P3F_-f-129" value="" style="endArrow=none;dashed=1;html=1;dashPattern=1 3;strokeWidth=2;rounded=0;entryX=1;entryY=0.5;entryDx=0;entryDy=0;" parent="1" edge="1">
          <mxGeometry width="50" height="50" relative="1" as="geometry">
            <mxPoint x="452" y="429" as="sourcePoint" />
            <mxPoint x="428.4999999999999" y="429" as="targetPoint" />
          </mxGeometry>
        </mxCell>
        <mxCell id="XD2-V8QEW1LzV1P3F_-f-194" style="edgeStyle=orthogonalEdgeStyle;rounded=0;orthogonalLoop=1;jettySize=auto;html=1;entryX=1;entryY=0.5;entryDx=0;entryDy=0;exitX=0.219;exitY=0.058;exitDx=0;exitDy=0;exitPerimeter=0;" parent="1" source="XD2-V8QEW1LzV1P3F_-f-137" target="XD2-V8QEW1LzV1P3F_-f-141" edge="1">
          <mxGeometry relative="1" as="geometry">
            <Array as="points">
              <mxPoint x="505" y="340" />
            </Array>
            <mxPoint x="505" y="345" as="sourcePoint" />
          </mxGeometry>
        </mxCell>
        <mxCell id="XD2-V8QEW1LzV1P3F_-f-137" value="HSAA" style="rounded=1;whiteSpace=wrap;html=1;fillColor=#dae8fc;strokeColor=#6c8ebf;" parent="1" vertex="1">
          <mxGeometry x="390.5" y="351" width="521.63" height="18" as="geometry" />
        </mxCell>
        <mxCell id="XD2-V8QEW1LzV1P3F_-f-140" value="HSAA" style="rounded=1;whiteSpace=wrap;html=1;fillColor=#dae8fc;strokeColor=#6c8ebf;" parent="1" vertex="1">
          <mxGeometry x="390.5" y="382" width="111.63" height="20" as="geometry" />
        </mxCell>
        <mxCell id="XD2-V8QEW1LzV1P3F_-f-141" value="" style="ellipse;whiteSpace=wrap;html=1;aspect=fixed;" parent="1" vertex="1">
          <mxGeometry x="336" y="322.5" width="35" height="35" as="geometry" />
        </mxCell>
        <mxCell id="XD2-V8QEW1LzV1P3F_-f-142" value="" style="endArrow=none;html=1;rounded=0;entryX=0.5;entryY=0;entryDx=0;entryDy=0;exitX=0.5;exitY=1;exitDx=0;exitDy=0;" parent="1" source="XD2-V8QEW1LzV1P3F_-f-141" target="XD2-V8QEW1LzV1P3F_-f-141" edge="1">
          <mxGeometry width="50" height="50" relative="1" as="geometry">
            <mxPoint x="395" y="417.5" as="sourcePoint" />
            <mxPoint x="445" y="367.5" as="targetPoint" />
          </mxGeometry>
        </mxCell>
        <mxCell id="XD2-V8QEW1LzV1P3F_-f-143" value="" style="endArrow=none;html=1;rounded=0;exitX=1;exitY=0.5;exitDx=0;exitDy=0;entryX=0;entryY=0.5;entryDx=0;entryDy=0;" parent="1" source="XD2-V8QEW1LzV1P3F_-f-141" target="XD2-V8QEW1LzV1P3F_-f-141" edge="1">
          <mxGeometry width="50" height="50" relative="1" as="geometry">
            <mxPoint x="364" y="367.5" as="sourcePoint" />
            <mxPoint x="364" y="332.5" as="targetPoint" />
          </mxGeometry>
        </mxCell>
        <mxCell id="XD2-V8QEW1LzV1P3F_-f-184" value="Relu" style="text;html=1;align=center;verticalAlign=middle;resizable=0;points=[];autosize=1;strokeColor=none;fillColor=none;rotation=-90;" parent="1" vertex="1">
          <mxGeometry x="315" y="525" width="43" height="26" as="geometry" />
        </mxCell>
        <mxCell id="XD2-V8QEW1LzV1P3F_-f-187" value="" style="endArrow=classic;html=1;rounded=0;exitX=0.5;exitY=0;exitDx=0;exitDy=0;entryX=0.5;entryY=1;entryDx=0;entryDy=0;" parent="1" source="XD2-V8QEW1LzV1P3F_-f-7" target="XD2-V8QEW1LzV1P3F_-f-6" edge="1">
          <mxGeometry width="50" height="50" relative="1" as="geometry">
            <mxPoint x="642.75" y="160" as="sourcePoint" />
            <mxPoint x="692.75" y="110" as="targetPoint" />
          </mxGeometry>
        </mxCell>
        <mxCell id="u9Ba9--OEbl625sA4hoY-2" value="" style="endArrow=classic;html=1;rounded=0;exitX=0.75;exitY=0;exitDx=0;exitDy=0;" parent="1" edge="1">
          <mxGeometry width="50" height="50" relative="1" as="geometry">
            <mxPoint x="533.83" y="871" as="sourcePoint" />
            <mxPoint x="534" y="629" as="targetPoint" />
          </mxGeometry>
        </mxCell>
        <mxCell id="u9Ba9--OEbl625sA4hoY-3" value="" style="endArrow=classic;html=1;rounded=0;exitX=0.75;exitY=0;exitDx=0;exitDy=0;" parent="1" edge="1">
          <mxGeometry width="50" height="50" relative="1" as="geometry">
            <mxPoint x="597.9200000000001" y="872" as="sourcePoint" />
            <mxPoint x="598" y="630" as="targetPoint" />
          </mxGeometry>
        </mxCell>
        <mxCell id="u9Ba9--OEbl625sA4hoY-61" value="HSAA" style="rounded=1;whiteSpace=wrap;html=1;fillColor=#dae8fc;strokeColor=#6c8ebf;" parent="1" vertex="1">
          <mxGeometry x="669.5" y="380" width="111.63" height="20" as="geometry" />
        </mxCell>
        <mxCell id="u9Ba9--OEbl625sA4hoY-66" value="" style="rounded=1;whiteSpace=wrap;html=1;fillColor=#f8cecc;strokeColor=#b85450;" parent="1" vertex="1">
          <mxGeometry x="328" y="462" width="41" height="14" as="geometry" />
        </mxCell>
        <mxCell id="u9Ba9--OEbl625sA4hoY-67" value="" style="rounded=1;whiteSpace=wrap;html=1;fillColor=#f8cecc;strokeColor=#b85450;" parent="1" vertex="1">
          <mxGeometry x="328" y="443" width="41" height="14" as="geometry" />
        </mxCell>
        <mxCell id="u9Ba9--OEbl625sA4hoY-68" value="" style="rounded=1;whiteSpace=wrap;html=1;fillColor=#d5e8d4;strokeColor=#82b366;" parent="1" vertex="1">
          <mxGeometry x="390.5" y="481" width="41" height="14" as="geometry" />
        </mxCell>
        <mxCell id="u9Ba9--OEbl625sA4hoY-69" value="" style="rounded=1;whiteSpace=wrap;html=1;fillColor=#fff2cc;strokeColor=#d6b656;" parent="1" vertex="1">
          <mxGeometry x="390.5" y="418" width="41" height="21" as="geometry" />
        </mxCell>
        <mxCell id="u9Ba9--OEbl625sA4hoY-70" value="" style="rounded=1;whiteSpace=wrap;html=1;fillColor=#d5e8d4;strokeColor=#82b366;" parent="1" vertex="1">
          <mxGeometry x="390.63" y="462" width="41" height="14" as="geometry" />
        </mxCell>
        <mxCell id="u9Ba9--OEbl625sA4hoY-71" value="" style="rounded=1;whiteSpace=wrap;html=1;fillColor=#d5e8d4;strokeColor=#82b366;" parent="1" vertex="1">
          <mxGeometry x="390.63" y="443" width="41" height="14" as="geometry" />
        </mxCell>
        <mxCell id="u9Ba9--OEbl625sA4hoY-72" value="" style="rounded=1;whiteSpace=wrap;html=1;fillColor=#d5e8d4;strokeColor=#82b366;" parent="1" vertex="1">
          <mxGeometry x="454.5" y="481" width="41" height="14" as="geometry" />
        </mxCell>
        <mxCell id="u9Ba9--OEbl625sA4hoY-73" value="" style="rounded=1;whiteSpace=wrap;html=1;fillColor=#fff2cc;strokeColor=#d6b656;" parent="1" vertex="1">
          <mxGeometry x="454.5" y="418" width="41" height="21" as="geometry" />
        </mxCell>
        <mxCell id="u9Ba9--OEbl625sA4hoY-74" value="" style="rounded=1;whiteSpace=wrap;html=1;fillColor=#d5e8d4;strokeColor=#82b366;" parent="1" vertex="1">
          <mxGeometry x="454.63" y="462" width="41" height="14" as="geometry" />
        </mxCell>
        <mxCell id="u9Ba9--OEbl625sA4hoY-75" value="" style="rounded=1;whiteSpace=wrap;html=1;fillColor=#d5e8d4;strokeColor=#82b366;" parent="1" vertex="1">
          <mxGeometry x="454.63" y="443" width="41" height="14" as="geometry" />
        </mxCell>
        <mxCell id="u9Ba9--OEbl625sA4hoY-76" value="" style="rounded=1;whiteSpace=wrap;html=1;" parent="1" vertex="1">
          <mxGeometry x="513.5" y="413" width="115" height="91" as="geometry" />
        </mxCell>
        <mxCell id="u9Ba9--OEbl625sA4hoY-77" value="" style="endArrow=none;dashed=1;html=1;dashPattern=1 3;strokeWidth=2;rounded=0;entryX=1;entryY=0.5;entryDx=0;entryDy=0;exitX=0;exitY=0.5;exitDx=0;exitDy=0;" parent="1" edge="1">
          <mxGeometry width="50" height="50" relative="1" as="geometry">
            <mxPoint x="579.75" y="468.88" as="sourcePoint" />
            <mxPoint x="556.2499999999999" y="468.88" as="targetPoint" />
          </mxGeometry>
        </mxCell>
        <mxCell id="u9Ba9--OEbl625sA4hoY-78" value="" style="endArrow=none;dashed=1;html=1;dashPattern=1 3;strokeWidth=2;rounded=0;entryX=1;entryY=0.5;entryDx=0;entryDy=0;" parent="1" edge="1">
          <mxGeometry width="50" height="50" relative="1" as="geometry">
            <mxPoint x="579.5" y="429" as="sourcePoint" />
            <mxPoint x="555.9999999999999" y="429" as="targetPoint" />
          </mxGeometry>
        </mxCell>
        <mxCell id="u9Ba9--OEbl625sA4hoY-79" value="" style="rounded=1;whiteSpace=wrap;html=1;fillColor=#d5e8d4;strokeColor=#82b366;" parent="1" vertex="1">
          <mxGeometry x="518" y="481" width="41" height="14" as="geometry" />
        </mxCell>
        <mxCell id="u9Ba9--OEbl625sA4hoY-80" value="" style="rounded=1;whiteSpace=wrap;html=1;fillColor=#fff2cc;strokeColor=#d6b656;" parent="1" vertex="1">
          <mxGeometry x="518" y="418" width="41" height="21" as="geometry" />
        </mxCell>
        <mxCell id="u9Ba9--OEbl625sA4hoY-81" value="" style="rounded=1;whiteSpace=wrap;html=1;fillColor=#d5e8d4;strokeColor=#82b366;" parent="1" vertex="1">
          <mxGeometry x="518.13" y="462" width="41" height="14" as="geometry" />
        </mxCell>
        <mxCell id="u9Ba9--OEbl625sA4hoY-82" value="" style="rounded=1;whiteSpace=wrap;html=1;fillColor=#d5e8d4;strokeColor=#82b366;" parent="1" vertex="1">
          <mxGeometry x="518.13" y="443" width="41" height="14" as="geometry" />
        </mxCell>
        <mxCell id="u9Ba9--OEbl625sA4hoY-83" value="" style="rounded=1;whiteSpace=wrap;html=1;fillColor=#d5e8d4;strokeColor=#82b366;" parent="1" vertex="1">
          <mxGeometry x="582" y="481" width="41" height="14" as="geometry" />
        </mxCell>
        <mxCell id="u9Ba9--OEbl625sA4hoY-84" value="" style="rounded=1;whiteSpace=wrap;html=1;fillColor=#fff2cc;strokeColor=#d6b656;" parent="1" vertex="1">
          <mxGeometry x="582" y="418" width="41" height="21" as="geometry" />
        </mxCell>
        <mxCell id="u9Ba9--OEbl625sA4hoY-85" value="" style="rounded=1;whiteSpace=wrap;html=1;fillColor=#d5e8d4;strokeColor=#82b366;" parent="1" vertex="1">
          <mxGeometry x="582.13" y="462" width="41" height="14" as="geometry" />
        </mxCell>
        <mxCell id="u9Ba9--OEbl625sA4hoY-86" value="" style="rounded=1;whiteSpace=wrap;html=1;fillColor=#d5e8d4;strokeColor=#82b366;" parent="1" vertex="1">
          <mxGeometry x="582.13" y="443" width="41" height="14" as="geometry" />
        </mxCell>
        <mxCell id="u9Ba9--OEbl625sA4hoY-87" value="" style="rounded=1;whiteSpace=wrap;html=1;" parent="1" vertex="1">
          <mxGeometry x="667.8199999999999" y="413" width="115" height="91" as="geometry" />
        </mxCell>
        <mxCell id="u9Ba9--OEbl625sA4hoY-88" value="" style="endArrow=none;dashed=1;html=1;dashPattern=1 3;strokeWidth=2;rounded=0;entryX=1;entryY=0.5;entryDx=0;entryDy=0;exitX=0;exitY=0.5;exitDx=0;exitDy=0;" parent="1" edge="1">
          <mxGeometry width="50" height="50" relative="1" as="geometry">
            <mxPoint x="734.0699999999999" y="468.88" as="sourcePoint" />
            <mxPoint x="710.5699999999999" y="468.88" as="targetPoint" />
          </mxGeometry>
        </mxCell>
        <mxCell id="u9Ba9--OEbl625sA4hoY-89" value="" style="endArrow=none;dashed=1;html=1;dashPattern=1 3;strokeWidth=2;rounded=0;entryX=1;entryY=0.5;entryDx=0;entryDy=0;" parent="1" edge="1">
          <mxGeometry width="50" height="50" relative="1" as="geometry">
            <mxPoint x="733.8199999999999" y="429" as="sourcePoint" />
            <mxPoint x="710.3199999999999" y="429" as="targetPoint" />
          </mxGeometry>
        </mxCell>
        <mxCell id="u9Ba9--OEbl625sA4hoY-90" value="" style="rounded=1;whiteSpace=wrap;html=1;fillColor=#d5e8d4;strokeColor=#82b366;" parent="1" vertex="1">
          <mxGeometry x="672.3199999999999" y="481" width="41" height="14" as="geometry" />
        </mxCell>
        <mxCell id="u9Ba9--OEbl625sA4hoY-91" value="" style="rounded=1;whiteSpace=wrap;html=1;fillColor=#fff2cc;strokeColor=#d6b656;" parent="1" vertex="1">
          <mxGeometry x="672.3199999999999" y="418" width="41" height="21" as="geometry" />
        </mxCell>
        <mxCell id="u9Ba9--OEbl625sA4hoY-92" value="" style="rounded=1;whiteSpace=wrap;html=1;fillColor=#d5e8d4;strokeColor=#82b366;" parent="1" vertex="1">
          <mxGeometry x="672.45" y="462" width="41" height="14" as="geometry" />
        </mxCell>
        <mxCell id="u9Ba9--OEbl625sA4hoY-93" value="" style="rounded=1;whiteSpace=wrap;html=1;fillColor=#d5e8d4;strokeColor=#82b366;" parent="1" vertex="1">
          <mxGeometry x="672.45" y="443" width="41" height="14" as="geometry" />
        </mxCell>
        <mxCell id="u9Ba9--OEbl625sA4hoY-94" value="" style="rounded=1;whiteSpace=wrap;html=1;fillColor=#d5e8d4;strokeColor=#82b366;" parent="1" vertex="1">
          <mxGeometry x="736.3199999999999" y="481" width="41" height="14" as="geometry" />
        </mxCell>
        <mxCell id="u9Ba9--OEbl625sA4hoY-95" value="" style="rounded=1;whiteSpace=wrap;html=1;fillColor=#fff2cc;strokeColor=#d6b656;" parent="1" vertex="1">
          <mxGeometry x="736.3199999999999" y="418" width="41" height="21" as="geometry" />
        </mxCell>
        <mxCell id="u9Ba9--OEbl625sA4hoY-96" value="" style="rounded=1;whiteSpace=wrap;html=1;fillColor=#d5e8d4;strokeColor=#82b366;" parent="1" vertex="1">
          <mxGeometry x="736.45" y="462" width="41" height="14" as="geometry" />
        </mxCell>
        <mxCell id="u9Ba9--OEbl625sA4hoY-97" value="" style="rounded=1;whiteSpace=wrap;html=1;fillColor=#d5e8d4;strokeColor=#82b366;" parent="1" vertex="1">
          <mxGeometry x="736.45" y="443" width="41" height="14" as="geometry" />
        </mxCell>
        <mxCell id="u9Ba9--OEbl625sA4hoY-98" value="" style="rounded=1;whiteSpace=wrap;html=1;" parent="1" vertex="1">
          <mxGeometry x="794" y="413" width="115" height="91" as="geometry" />
        </mxCell>
        <mxCell id="u9Ba9--OEbl625sA4hoY-99" value="" style="endArrow=none;dashed=1;html=1;dashPattern=1 3;strokeWidth=2;rounded=0;entryX=1;entryY=0.5;entryDx=0;entryDy=0;exitX=0;exitY=0.5;exitDx=0;exitDy=0;" parent="1" edge="1">
          <mxGeometry width="50" height="50" relative="1" as="geometry">
            <mxPoint x="860.25" y="468.88" as="sourcePoint" />
            <mxPoint x="836.75" y="468.88" as="targetPoint" />
          </mxGeometry>
        </mxCell>
        <mxCell id="u9Ba9--OEbl625sA4hoY-100" value="" style="endArrow=none;dashed=1;html=1;dashPattern=1 3;strokeWidth=2;rounded=0;entryX=1;entryY=0.5;entryDx=0;entryDy=0;" parent="1" edge="1">
          <mxGeometry width="50" height="50" relative="1" as="geometry">
            <mxPoint x="860" y="429" as="sourcePoint" />
            <mxPoint x="836.5" y="429" as="targetPoint" />
          </mxGeometry>
        </mxCell>
        <mxCell id="u9Ba9--OEbl625sA4hoY-101" value="" style="rounded=1;whiteSpace=wrap;html=1;fillColor=#d5e8d4;strokeColor=#82b366;" parent="1" vertex="1">
          <mxGeometry x="798.5" y="481" width="41" height="14" as="geometry" />
        </mxCell>
        <mxCell id="u9Ba9--OEbl625sA4hoY-102" value="" style="rounded=1;whiteSpace=wrap;html=1;fillColor=#fff2cc;strokeColor=#d6b656;" parent="1" vertex="1">
          <mxGeometry x="798.5" y="418" width="41" height="21" as="geometry" />
        </mxCell>
        <mxCell id="u9Ba9--OEbl625sA4hoY-103" value="" style="rounded=1;whiteSpace=wrap;html=1;fillColor=#d5e8d4;strokeColor=#82b366;" parent="1" vertex="1">
          <mxGeometry x="798.6300000000001" y="462" width="41" height="14" as="geometry" />
        </mxCell>
        <mxCell id="u9Ba9--OEbl625sA4hoY-104" value="" style="rounded=1;whiteSpace=wrap;html=1;fillColor=#d5e8d4;strokeColor=#82b366;" parent="1" vertex="1">
          <mxGeometry x="798.6300000000001" y="443" width="41" height="14" as="geometry" />
        </mxCell>
        <mxCell id="u9Ba9--OEbl625sA4hoY-105" value="" style="rounded=1;whiteSpace=wrap;html=1;fillColor=#d5e8d4;strokeColor=#82b366;" parent="1" vertex="1">
          <mxGeometry x="862.5" y="481" width="41" height="14" as="geometry" />
        </mxCell>
        <mxCell id="u9Ba9--OEbl625sA4hoY-106" value="" style="rounded=1;whiteSpace=wrap;html=1;fillColor=#fff2cc;strokeColor=#d6b656;" parent="1" vertex="1">
          <mxGeometry x="862.5" y="418" width="41" height="21" as="geometry" />
        </mxCell>
        <mxCell id="u9Ba9--OEbl625sA4hoY-107" value="" style="rounded=1;whiteSpace=wrap;html=1;fillColor=#d5e8d4;strokeColor=#82b366;" parent="1" vertex="1">
          <mxGeometry x="862.6300000000001" y="462" width="41" height="14" as="geometry" />
        </mxCell>
        <mxCell id="u9Ba9--OEbl625sA4hoY-108" value="" style="rounded=1;whiteSpace=wrap;html=1;fillColor=#d5e8d4;strokeColor=#82b366;" parent="1" vertex="1">
          <mxGeometry x="862.6300000000001" y="443" width="41" height="14" as="geometry" />
        </mxCell>
        <mxCell id="u9Ba9--OEbl625sA4hoY-118" style="edgeStyle=orthogonalEdgeStyle;rounded=0;orthogonalLoop=1;jettySize=auto;html=1;entryX=0.098;entryY=1.005;entryDx=0;entryDy=0;entryPerimeter=0;" parent="1" source="u9Ba9--OEbl625sA4hoY-112" target="XD2-V8QEW1LzV1P3F_-f-20" edge="1">
          <mxGeometry relative="1" as="geometry" />
        </mxCell>
        <mxCell id="u9Ba9--OEbl625sA4hoY-112" value="" style="rounded=1;whiteSpace=wrap;html=1;" parent="1" vertex="1">
          <mxGeometry x="409.32" y="673" width="50" height="90" as="geometry" />
        </mxCell>
        <mxCell id="u9Ba9--OEbl625sA4hoY-113" value="" style="rounded=1;whiteSpace=wrap;html=1;fillColor=#f8cecc;strokeColor=#b85450;" parent="1" vertex="1">
          <mxGeometry x="413.69" y="741" width="41" height="14" as="geometry" />
        </mxCell>
        <mxCell id="u9Ba9--OEbl625sA4hoY-114" value="" style="rounded=1;whiteSpace=wrap;html=1;fillColor=#fff2cc;strokeColor=#d6b656;" parent="1" vertex="1">
          <mxGeometry x="413.69" y="678" width="41" height="21" as="geometry" />
        </mxCell>
        <mxCell id="u9Ba9--OEbl625sA4hoY-115" value="" style="rounded=1;whiteSpace=wrap;html=1;fillColor=#f8cecc;strokeColor=#b85450;" parent="1" vertex="1">
          <mxGeometry x="413.82" y="722" width="41" height="14" as="geometry" />
        </mxCell>
        <mxCell id="u9Ba9--OEbl625sA4hoY-116" value="" style="rounded=1;whiteSpace=wrap;html=1;fillColor=#f8cecc;strokeColor=#b85450;" parent="1" vertex="1">
          <mxGeometry x="413.82" y="703" width="41" height="14" as="geometry" />
        </mxCell>
        <mxCell id="u9Ba9--OEbl625sA4hoY-120" value="" style="rounded=1;whiteSpace=wrap;html=1;" parent="1" vertex="1">
          <mxGeometry x="315" y="869" width="50" height="90" as="geometry" />
        </mxCell>
        <mxCell id="u9Ba9--OEbl625sA4hoY-121" value="" style="rounded=1;whiteSpace=wrap;html=1;fillColor=#f8cecc;strokeColor=#b85450;" parent="1" vertex="1">
          <mxGeometry x="319.37" y="937" width="41" height="14" as="geometry" />
        </mxCell>
        <mxCell id="u9Ba9--OEbl625sA4hoY-122" value="" style="rounded=1;whiteSpace=wrap;html=1;fillColor=#fff2cc;strokeColor=#d6b656;" parent="1" vertex="1">
          <mxGeometry x="319.37" y="874" width="41" height="21" as="geometry" />
        </mxCell>
        <mxCell id="u9Ba9--OEbl625sA4hoY-123" value="" style="rounded=1;whiteSpace=wrap;html=1;fillColor=#f8cecc;strokeColor=#b85450;" parent="1" vertex="1">
          <mxGeometry x="319.5" y="918" width="41" height="14" as="geometry" />
        </mxCell>
        <mxCell id="u9Ba9--OEbl625sA4hoY-124" value="" style="rounded=1;whiteSpace=wrap;html=1;fillColor=#f8cecc;strokeColor=#b85450;" parent="1" vertex="1">
          <mxGeometry x="319.5" y="899" width="41" height="14" as="geometry" />
        </mxCell>
        <mxCell id="u9Ba9--OEbl625sA4hoY-125" value="" style="rounded=1;whiteSpace=wrap;html=1;" parent="1" vertex="1">
          <mxGeometry x="377.5" y="869" width="115" height="91" as="geometry" />
        </mxCell>
        <mxCell id="u9Ba9--OEbl625sA4hoY-126" value="" style="endArrow=none;dashed=1;html=1;dashPattern=1 3;strokeWidth=2;rounded=0;entryX=1;entryY=0.5;entryDx=0;entryDy=0;exitX=0;exitY=0.5;exitDx=0;exitDy=0;" parent="1" edge="1">
          <mxGeometry width="50" height="50" relative="1" as="geometry">
            <mxPoint x="443.75" y="924.88" as="sourcePoint" />
            <mxPoint x="420.2499999999999" y="924.88" as="targetPoint" />
          </mxGeometry>
        </mxCell>
        <mxCell id="u9Ba9--OEbl625sA4hoY-127" value="" style="endArrow=none;dashed=1;html=1;dashPattern=1 3;strokeWidth=2;rounded=0;entryX=1;entryY=0.5;entryDx=0;entryDy=0;" parent="1" edge="1">
          <mxGeometry width="50" height="50" relative="1" as="geometry">
            <mxPoint x="443.5" y="885" as="sourcePoint" />
            <mxPoint x="419.9999999999999" y="885" as="targetPoint" />
          </mxGeometry>
        </mxCell>
        <mxCell id="u9Ba9--OEbl625sA4hoY-128" value="" style="rounded=1;whiteSpace=wrap;html=1;fillColor=#d5e8d4;strokeColor=#82b366;" parent="1" vertex="1">
          <mxGeometry x="382" y="937" width="41" height="14" as="geometry" />
        </mxCell>
        <mxCell id="u9Ba9--OEbl625sA4hoY-129" value="" style="rounded=1;whiteSpace=wrap;html=1;fillColor=#fff2cc;strokeColor=#d6b656;" parent="1" vertex="1">
          <mxGeometry x="382" y="874" width="41" height="21" as="geometry" />
        </mxCell>
        <mxCell id="u9Ba9--OEbl625sA4hoY-130" value="" style="rounded=1;whiteSpace=wrap;html=1;fillColor=#d5e8d4;strokeColor=#82b366;" parent="1" vertex="1">
          <mxGeometry x="382.13" y="918" width="41" height="14" as="geometry" />
        </mxCell>
        <mxCell id="u9Ba9--OEbl625sA4hoY-131" value="" style="rounded=1;whiteSpace=wrap;html=1;fillColor=#d5e8d4;strokeColor=#82b366;" parent="1" vertex="1">
          <mxGeometry x="382.13" y="899" width="41" height="14" as="geometry" />
        </mxCell>
        <mxCell id="u9Ba9--OEbl625sA4hoY-132" value="" style="rounded=1;whiteSpace=wrap;html=1;fillColor=#d5e8d4;strokeColor=#82b366;" parent="1" vertex="1">
          <mxGeometry x="446" y="937" width="41" height="14" as="geometry" />
        </mxCell>
        <mxCell id="u9Ba9--OEbl625sA4hoY-133" value="" style="rounded=1;whiteSpace=wrap;html=1;fillColor=#fff2cc;strokeColor=#d6b656;" parent="1" vertex="1">
          <mxGeometry x="446" y="874" width="41" height="21" as="geometry" />
        </mxCell>
        <mxCell id="u9Ba9--OEbl625sA4hoY-134" value="" style="rounded=1;whiteSpace=wrap;html=1;fillColor=#d5e8d4;strokeColor=#82b366;" parent="1" vertex="1">
          <mxGeometry x="446.13" y="918" width="41" height="14" as="geometry" />
        </mxCell>
        <mxCell id="u9Ba9--OEbl625sA4hoY-135" value="" style="rounded=1;whiteSpace=wrap;html=1;fillColor=#d5e8d4;strokeColor=#82b366;" parent="1" vertex="1">
          <mxGeometry x="446.13" y="899" width="41" height="14" as="geometry" />
        </mxCell>
        <mxCell id="u9Ba9--OEbl625sA4hoY-147" value="" style="rounded=1;whiteSpace=wrap;html=1;" parent="1" vertex="1">
          <mxGeometry x="505.5" y="869" width="115" height="91" as="geometry" />
        </mxCell>
        <mxCell id="u9Ba9--OEbl625sA4hoY-148" value="" style="endArrow=none;dashed=1;html=1;dashPattern=1 3;strokeWidth=2;rounded=0;entryX=1;entryY=0.5;entryDx=0;entryDy=0;exitX=0;exitY=0.5;exitDx=0;exitDy=0;" parent="1" edge="1">
          <mxGeometry width="50" height="50" relative="1" as="geometry">
            <mxPoint x="571.75" y="924.88" as="sourcePoint" />
            <mxPoint x="548.2499999999999" y="924.88" as="targetPoint" />
          </mxGeometry>
        </mxCell>
        <mxCell id="u9Ba9--OEbl625sA4hoY-149" value="" style="endArrow=none;dashed=1;html=1;dashPattern=1 3;strokeWidth=2;rounded=0;entryX=1;entryY=0.5;entryDx=0;entryDy=0;" parent="1" edge="1">
          <mxGeometry width="50" height="50" relative="1" as="geometry">
            <mxPoint x="571.5" y="885" as="sourcePoint" />
            <mxPoint x="547.9999999999999" y="885" as="targetPoint" />
          </mxGeometry>
        </mxCell>
        <mxCell id="u9Ba9--OEbl625sA4hoY-150" value="" style="rounded=1;whiteSpace=wrap;html=1;fillColor=#d5e8d4;strokeColor=#82b366;" parent="1" vertex="1">
          <mxGeometry x="510" y="937" width="41" height="14" as="geometry" />
        </mxCell>
        <mxCell id="u9Ba9--OEbl625sA4hoY-151" value="" style="rounded=1;whiteSpace=wrap;html=1;fillColor=#fff2cc;strokeColor=#d6b656;" parent="1" vertex="1">
          <mxGeometry x="510" y="874" width="41" height="21" as="geometry" />
        </mxCell>
        <mxCell id="u9Ba9--OEbl625sA4hoY-152" value="" style="rounded=1;whiteSpace=wrap;html=1;fillColor=#d5e8d4;strokeColor=#82b366;" parent="1" vertex="1">
          <mxGeometry x="510.13" y="918" width="41" height="14" as="geometry" />
        </mxCell>
        <mxCell id="u9Ba9--OEbl625sA4hoY-153" value="" style="rounded=1;whiteSpace=wrap;html=1;fillColor=#d5e8d4;strokeColor=#82b366;" parent="1" vertex="1">
          <mxGeometry x="510.13" y="899" width="41" height="14" as="geometry" />
        </mxCell>
        <mxCell id="u9Ba9--OEbl625sA4hoY-154" value="" style="rounded=1;whiteSpace=wrap;html=1;fillColor=#d5e8d4;strokeColor=#82b366;" parent="1" vertex="1">
          <mxGeometry x="574" y="937" width="41" height="14" as="geometry" />
        </mxCell>
        <mxCell id="u9Ba9--OEbl625sA4hoY-155" value="" style="rounded=1;whiteSpace=wrap;html=1;fillColor=#fff2cc;strokeColor=#d6b656;" parent="1" vertex="1">
          <mxGeometry x="574" y="874" width="41" height="21" as="geometry" />
        </mxCell>
        <mxCell id="u9Ba9--OEbl625sA4hoY-156" value="" style="rounded=1;whiteSpace=wrap;html=1;fillColor=#d5e8d4;strokeColor=#82b366;" parent="1" vertex="1">
          <mxGeometry x="574.13" y="918" width="41" height="14" as="geometry" />
        </mxCell>
        <mxCell id="u9Ba9--OEbl625sA4hoY-157" value="" style="rounded=1;whiteSpace=wrap;html=1;fillColor=#d5e8d4;strokeColor=#82b366;" parent="1" vertex="1">
          <mxGeometry x="574.13" y="899" width="41" height="14" as="geometry" />
        </mxCell>
        <mxCell id="u9Ba9--OEbl625sA4hoY-158" value="" style="rounded=1;whiteSpace=wrap;html=1;dashed=1;" parent="1" vertex="1">
          <mxGeometry x="664.82" y="663" width="126" height="303" as="geometry" />
        </mxCell>
        <mxCell id="u9Ba9--OEbl625sA4hoY-159" value="" style="rounded=1;whiteSpace=wrap;html=1;fillStyle=solid;gradientColor=default;fillColor=none;dashed=1;dashPattern=1 2;" parent="1" vertex="1">
          <mxGeometry x="666.82" y="864" width="255" height="106" as="geometry" />
        </mxCell>
        <mxCell id="u9Ba9--OEbl625sA4hoY-160" style="edgeStyle=orthogonalEdgeStyle;rounded=0;orthogonalLoop=1;jettySize=auto;html=1;entryX=0.5;entryY=1;entryDx=0;entryDy=0;" parent="1" target="u9Ba9--OEbl625sA4hoY-164" edge="1">
          <mxGeometry relative="1" as="geometry">
            <mxPoint x="727.1057142857144" y="809" as="sourcePoint" />
          </mxGeometry>
        </mxCell>
        <mxCell id="u9Ba9--OEbl625sA4hoY-161" value="HSAA" style="rounded=1;whiteSpace=wrap;html=1;fillColor=#dae8fc;strokeColor=#6c8ebf;" parent="1" vertex="1">
          <mxGeometry x="675.32" y="809" width="111.63" height="30" as="geometry" />
        </mxCell>
        <mxCell id="u9Ba9--OEbl625sA4hoY-163" style="edgeStyle=orthogonalEdgeStyle;rounded=0;orthogonalLoop=1;jettySize=auto;html=1;entryX=0.5;entryY=1;entryDx=0;entryDy=0;" parent="1" source="u9Ba9--OEbl625sA4hoY-164" target="u9Ba9--OEbl625sA4hoY-171" edge="1">
          <mxGeometry relative="1" as="geometry" />
        </mxCell>
        <mxCell id="u9Ba9--OEbl625sA4hoY-164" value="FFN" style="rounded=1;whiteSpace=wrap;html=1;" parent="1" vertex="1">
          <mxGeometry x="698.64" y="775" width="57" height="22" as="geometry" />
        </mxCell>
        <mxCell id="u9Ba9--OEbl625sA4hoY-165" value="" style="endArrow=classic;html=1;rounded=0;exitX=0.217;exitY=-0.001;exitDx=0;exitDy=0;exitPerimeter=0;entryX=0.174;entryY=0.976;entryDx=0;entryDy=0;entryPerimeter=0;" parent="1" target="u9Ba9--OEbl625sA4hoY-161" edge="1">
          <mxGeometry width="50" height="50" relative="1" as="geometry">
            <mxPoint x="694.7750000000001" y="870.9390000000001" as="sourcePoint" />
            <mxPoint x="765.82" y="832" as="targetPoint" />
          </mxGeometry>
        </mxCell>
        <mxCell id="u9Ba9--OEbl625sA4hoY-166" value="" style="endArrow=classic;html=1;rounded=0;exitX=0.75;exitY=0;exitDx=0;exitDy=0;entryX=0.725;entryY=0.998;entryDx=0;entryDy=0;entryPerimeter=0;" parent="1" target="u9Ba9--OEbl625sA4hoY-161" edge="1">
          <mxGeometry width="50" height="50" relative="1" as="geometry">
            <mxPoint x="756.07" y="871" as="sourcePoint" />
            <mxPoint x="739.82" y="816" as="targetPoint" />
          </mxGeometry>
        </mxCell>
        <mxCell id="u9Ba9--OEbl625sA4hoY-167" value="" style="endArrow=classic;html=1;rounded=0;exitX=0.75;exitY=0;exitDx=0;exitDy=0;" parent="1" edge="1">
          <mxGeometry width="50" height="50" relative="1" as="geometry">
            <mxPoint x="826.6500000000001" y="871" as="sourcePoint" />
            <mxPoint x="826.82" y="629" as="targetPoint" />
          </mxGeometry>
        </mxCell>
        <mxCell id="u9Ba9--OEbl625sA4hoY-168" value="" style="endArrow=classic;html=1;rounded=0;exitX=0.75;exitY=0;exitDx=0;exitDy=0;" parent="1" edge="1">
          <mxGeometry width="50" height="50" relative="1" as="geometry">
            <mxPoint x="890.7400000000001" y="872" as="sourcePoint" />
            <mxPoint x="890.82" y="630" as="targetPoint" />
          </mxGeometry>
        </mxCell>
        <mxCell id="u9Ba9--OEbl625sA4hoY-170" style="edgeStyle=orthogonalEdgeStyle;rounded=0;orthogonalLoop=1;jettySize=auto;html=1;entryX=0.098;entryY=1.005;entryDx=0;entryDy=0;entryPerimeter=0;" parent="1" source="u9Ba9--OEbl625sA4hoY-171" edge="1">
          <mxGeometry relative="1" as="geometry">
            <mxPoint x="726.82" y="628" as="targetPoint" />
          </mxGeometry>
        </mxCell>
        <mxCell id="u9Ba9--OEbl625sA4hoY-171" value="" style="rounded=1;whiteSpace=wrap;html=1;" parent="1" vertex="1">
          <mxGeometry x="702.14" y="673" width="50" height="90" as="geometry" />
        </mxCell>
        <mxCell id="u9Ba9--OEbl625sA4hoY-172" value="" style="rounded=1;whiteSpace=wrap;html=1;fillColor=#f8cecc;strokeColor=#b85450;" parent="1" vertex="1">
          <mxGeometry x="706.5100000000001" y="741" width="41" height="14" as="geometry" />
        </mxCell>
        <mxCell id="u9Ba9--OEbl625sA4hoY-173" value="" style="rounded=1;whiteSpace=wrap;html=1;fillColor=#fff2cc;strokeColor=#d6b656;" parent="1" vertex="1">
          <mxGeometry x="706.5100000000001" y="678" width="41" height="21" as="geometry" />
        </mxCell>
        <mxCell id="u9Ba9--OEbl625sA4hoY-174" value="" style="rounded=1;whiteSpace=wrap;html=1;fillColor=#f8cecc;strokeColor=#b85450;" parent="1" vertex="1">
          <mxGeometry x="706.64" y="722" width="41" height="14" as="geometry" />
        </mxCell>
        <mxCell id="u9Ba9--OEbl625sA4hoY-175" value="" style="rounded=1;whiteSpace=wrap;html=1;fillColor=#f8cecc;strokeColor=#b85450;" parent="1" vertex="1">
          <mxGeometry x="706.64" y="703" width="41" height="14" as="geometry" />
        </mxCell>
        <mxCell id="u9Ba9--OEbl625sA4hoY-181" value="" style="rounded=1;whiteSpace=wrap;html=1;" parent="1" vertex="1">
          <mxGeometry x="670.32" y="869" width="115" height="91" as="geometry" />
        </mxCell>
        <mxCell id="u9Ba9--OEbl625sA4hoY-182" value="" style="endArrow=none;dashed=1;html=1;dashPattern=1 3;strokeWidth=2;rounded=0;entryX=1;entryY=0.5;entryDx=0;entryDy=0;exitX=0;exitY=0.5;exitDx=0;exitDy=0;" parent="1" edge="1">
          <mxGeometry width="50" height="50" relative="1" as="geometry">
            <mxPoint x="736.57" y="924.88" as="sourcePoint" />
            <mxPoint x="713.0699999999999" y="924.88" as="targetPoint" />
          </mxGeometry>
        </mxCell>
        <mxCell id="u9Ba9--OEbl625sA4hoY-183" value="" style="endArrow=none;dashed=1;html=1;dashPattern=1 3;strokeWidth=2;rounded=0;entryX=1;entryY=0.5;entryDx=0;entryDy=0;" parent="1" edge="1">
          <mxGeometry width="50" height="50" relative="1" as="geometry">
            <mxPoint x="736.32" y="885" as="sourcePoint" />
            <mxPoint x="712.8199999999999" y="885" as="targetPoint" />
          </mxGeometry>
        </mxCell>
        <mxCell id="u9Ba9--OEbl625sA4hoY-184" value="" style="rounded=1;whiteSpace=wrap;html=1;fillColor=#d5e8d4;strokeColor=#82b366;" parent="1" vertex="1">
          <mxGeometry x="674.82" y="937" width="41" height="14" as="geometry" />
        </mxCell>
        <mxCell id="u9Ba9--OEbl625sA4hoY-185" value="" style="rounded=1;whiteSpace=wrap;html=1;fillColor=#fff2cc;strokeColor=#d6b656;" parent="1" vertex="1">
          <mxGeometry x="674.82" y="874" width="41" height="21" as="geometry" />
        </mxCell>
        <mxCell id="u9Ba9--OEbl625sA4hoY-186" value="" style="rounded=1;whiteSpace=wrap;html=1;fillColor=#d5e8d4;strokeColor=#82b366;" parent="1" vertex="1">
          <mxGeometry x="674.95" y="918" width="41" height="14" as="geometry" />
        </mxCell>
        <mxCell id="u9Ba9--OEbl625sA4hoY-187" value="" style="rounded=1;whiteSpace=wrap;html=1;fillColor=#d5e8d4;strokeColor=#82b366;" parent="1" vertex="1">
          <mxGeometry x="674.95" y="899" width="41" height="14" as="geometry" />
        </mxCell>
        <mxCell id="u9Ba9--OEbl625sA4hoY-188" value="" style="rounded=1;whiteSpace=wrap;html=1;fillColor=#d5e8d4;strokeColor=#82b366;" parent="1" vertex="1">
          <mxGeometry x="738.82" y="937" width="41" height="14" as="geometry" />
        </mxCell>
        <mxCell id="u9Ba9--OEbl625sA4hoY-189" value="" style="rounded=1;whiteSpace=wrap;html=1;fillColor=#fff2cc;strokeColor=#d6b656;" parent="1" vertex="1">
          <mxGeometry x="738.82" y="874" width="41" height="21" as="geometry" />
        </mxCell>
        <mxCell id="u9Ba9--OEbl625sA4hoY-190" value="" style="rounded=1;whiteSpace=wrap;html=1;fillColor=#d5e8d4;strokeColor=#82b366;" parent="1" vertex="1">
          <mxGeometry x="738.95" y="918" width="41" height="14" as="geometry" />
        </mxCell>
        <mxCell id="u9Ba9--OEbl625sA4hoY-191" value="" style="rounded=1;whiteSpace=wrap;html=1;fillColor=#d5e8d4;strokeColor=#82b366;" parent="1" vertex="1">
          <mxGeometry x="738.95" y="899" width="41" height="14" as="geometry" />
        </mxCell>
        <mxCell id="u9Ba9--OEbl625sA4hoY-192" value="" style="rounded=1;whiteSpace=wrap;html=1;" parent="1" vertex="1">
          <mxGeometry x="798.32" y="869" width="115" height="91" as="geometry" />
        </mxCell>
        <mxCell id="u9Ba9--OEbl625sA4hoY-193" value="" style="endArrow=none;dashed=1;html=1;dashPattern=1 3;strokeWidth=2;rounded=0;entryX=1;entryY=0.5;entryDx=0;entryDy=0;exitX=0;exitY=0.5;exitDx=0;exitDy=0;" parent="1" edge="1">
          <mxGeometry width="50" height="50" relative="1" as="geometry">
            <mxPoint x="864.57" y="924.88" as="sourcePoint" />
            <mxPoint x="841.0699999999999" y="924.88" as="targetPoint" />
          </mxGeometry>
        </mxCell>
        <mxCell id="u9Ba9--OEbl625sA4hoY-194" value="" style="endArrow=none;dashed=1;html=1;dashPattern=1 3;strokeWidth=2;rounded=0;entryX=1;entryY=0.5;entryDx=0;entryDy=0;" parent="1" edge="1">
          <mxGeometry width="50" height="50" relative="1" as="geometry">
            <mxPoint x="864.32" y="885" as="sourcePoint" />
            <mxPoint x="840.8199999999999" y="885" as="targetPoint" />
          </mxGeometry>
        </mxCell>
        <mxCell id="u9Ba9--OEbl625sA4hoY-195" value="" style="rounded=1;whiteSpace=wrap;html=1;fillColor=#d5e8d4;strokeColor=#82b366;" parent="1" vertex="1">
          <mxGeometry x="802.82" y="937" width="41" height="14" as="geometry" />
        </mxCell>
        <mxCell id="u9Ba9--OEbl625sA4hoY-196" value="" style="rounded=1;whiteSpace=wrap;html=1;fillColor=#fff2cc;strokeColor=#d6b656;" parent="1" vertex="1">
          <mxGeometry x="802.82" y="874" width="41" height="21" as="geometry" />
        </mxCell>
        <mxCell id="u9Ba9--OEbl625sA4hoY-197" value="" style="rounded=1;whiteSpace=wrap;html=1;fillColor=#d5e8d4;strokeColor=#82b366;" parent="1" vertex="1">
          <mxGeometry x="802.95" y="918" width="41" height="14" as="geometry" />
        </mxCell>
        <mxCell id="u9Ba9--OEbl625sA4hoY-198" value="" style="rounded=1;whiteSpace=wrap;html=1;fillColor=#d5e8d4;strokeColor=#82b366;" parent="1" vertex="1">
          <mxGeometry x="802.95" y="899" width="41" height="14" as="geometry" />
        </mxCell>
        <mxCell id="u9Ba9--OEbl625sA4hoY-199" value="" style="rounded=1;whiteSpace=wrap;html=1;fillColor=#d5e8d4;strokeColor=#82b366;" parent="1" vertex="1">
          <mxGeometry x="866.82" y="937" width="41" height="14" as="geometry" />
        </mxCell>
        <mxCell id="u9Ba9--OEbl625sA4hoY-200" value="" style="rounded=1;whiteSpace=wrap;html=1;fillColor=#fff2cc;strokeColor=#d6b656;" parent="1" vertex="1">
          <mxGeometry x="866.82" y="874" width="41" height="21" as="geometry" />
        </mxCell>
        <mxCell id="u9Ba9--OEbl625sA4hoY-201" value="" style="rounded=1;whiteSpace=wrap;html=1;fillColor=#d5e8d4;strokeColor=#82b366;" parent="1" vertex="1">
          <mxGeometry x="866.95" y="918" width="41" height="14" as="geometry" />
        </mxCell>
        <mxCell id="u9Ba9--OEbl625sA4hoY-202" value="" style="rounded=1;whiteSpace=wrap;html=1;fillColor=#d5e8d4;strokeColor=#82b366;" parent="1" vertex="1">
          <mxGeometry x="866.95" y="899" width="41" height="14" as="geometry" />
        </mxCell>
        <mxCell id="u9Ba9--OEbl625sA4hoY-44" style="edgeStyle=orthogonalEdgeStyle;rounded=0;orthogonalLoop=1;jettySize=auto;html=1;entryX=0;entryY=0.5;entryDx=0;entryDy=0;jumpStyle=arc;" parent="1" edge="1">
          <mxGeometry relative="1" as="geometry">
            <mxPoint x="340.9655172413793" y="871" as="sourcePoint" />
            <mxPoint x="675.5" y="825" as="targetPoint" />
            <Array as="points">
              <mxPoint x="341" y="855" />
              <mxPoint x="646" y="855" />
              <mxPoint x="646" y="825" />
            </Array>
          </mxGeometry>
        </mxCell>
        <mxCell id="u9Ba9--OEbl625sA4hoY-205" style="edgeStyle=orthogonalEdgeStyle;rounded=0;orthogonalLoop=1;jettySize=auto;html=1;entryX=0.216;entryY=1.017;entryDx=0;entryDy=0;entryPerimeter=0;" parent="1" source="u9Ba9--OEbl625sA4hoY-206" edge="1">
          <mxGeometry relative="1" as="geometry">
            <mxPoint x="690.5" y="961" as="targetPoint" />
          </mxGeometry>
        </mxCell>
        <mxCell id="u9Ba9--OEbl625sA4hoY-206" value="i&lt;span style=&quot;font-size: 10px;&quot;&gt;&lt;sub&gt;1&lt;/sub&gt;&lt;/span&gt;" style="ellipse;whiteSpace=wrap;html=1;aspect=fixed;fontFamily=Times New Roman;fillColor=#d5e8d4;strokeColor=#82b366;rotation=-90;" parent="1" vertex="1">
          <mxGeometry x="668.5" y="1048" width="44" height="44" as="geometry" />
        </mxCell>
        <mxCell id="u9Ba9--OEbl625sA4hoY-207" style="edgeStyle=orthogonalEdgeStyle;rounded=0;orthogonalLoop=1;jettySize=auto;html=1;entryX=0.25;entryY=1;entryDx=0;entryDy=0;" parent="1" source="u9Ba9--OEbl625sA4hoY-208" edge="1">
          <mxGeometry relative="1" as="geometry">
            <mxPoint x="822.5" y="959" as="targetPoint" />
          </mxGeometry>
        </mxCell>
        <mxCell id="u9Ba9--OEbl625sA4hoY-208" value="i&lt;sub&gt;2&lt;/sub&gt;" style="ellipse;whiteSpace=wrap;html=1;aspect=fixed;fontFamily=Times New Roman;fillColor=#d5e8d4;strokeColor=#82b366;rotation=-90;" parent="1" vertex="1">
          <mxGeometry x="800.5" y="1048" width="44" height="44" as="geometry" />
        </mxCell>
        <mxCell id="u9Ba9--OEbl625sA4hoY-209" style="edgeStyle=orthogonalEdgeStyle;rounded=0;orthogonalLoop=1;jettySize=auto;html=1;entryX=0.771;entryY=1.01;entryDx=0;entryDy=0;entryPerimeter=0;" parent="1" source="u9Ba9--OEbl625sA4hoY-210" edge="1">
          <mxGeometry relative="1" as="geometry">
            <mxPoint x="754.5" y="960" as="targetPoint" />
          </mxGeometry>
        </mxCell>
        <mxCell id="u9Ba9--OEbl625sA4hoY-210" value="i&lt;span style=&quot;font-size: 10px;&quot;&gt;&lt;sub&gt;4&lt;/sub&gt;&lt;/span&gt;" style="ellipse;whiteSpace=wrap;html=1;aspect=fixed;fontFamily=Times New Roman;fillColor=#d5e8d4;strokeColor=#82b366;rotation=-90;" parent="1" vertex="1">
          <mxGeometry x="733" y="1048" width="44" height="44" as="geometry" />
        </mxCell>
        <mxCell id="u9Ba9--OEbl625sA4hoY-211" style="edgeStyle=orthogonalEdgeStyle;rounded=0;orthogonalLoop=1;jettySize=auto;html=1;entryX=0.81;entryY=0.999;entryDx=0;entryDy=0;entryPerimeter=0;" parent="1" source="u9Ba9--OEbl625sA4hoY-212" edge="1">
          <mxGeometry relative="1" as="geometry">
            <mxPoint x="887.5" y="959" as="targetPoint" />
            <Array as="points">
              <mxPoint x="887" y="1004" />
              <mxPoint x="888" y="1004" />
            </Array>
          </mxGeometry>
        </mxCell>
        <mxCell id="u9Ba9--OEbl625sA4hoY-212" value="i&lt;sub&gt;3&lt;/sub&gt;" style="ellipse;whiteSpace=wrap;html=1;aspect=fixed;fontFamily=Times New Roman;fillColor=#d5e8d4;strokeColor=#82b366;rotation=-90;" parent="1" vertex="1">
          <mxGeometry x="865" y="1048" width="44" height="44" as="geometry" />
        </mxCell>
        <mxCell id="u9Ba9--OEbl625sA4hoY-213" value="&lt;font style=&quot;font-size: 11px;&quot; face=&quot;Times New Roman&quot;&gt;t&lt;sub style=&quot;font-size: 11px;&quot;&gt;1&lt;/sub&gt;&lt;/font&gt;" style="text;html=1;align=center;verticalAlign=middle;resizable=0;points=[];autosize=1;strokeColor=none;fillColor=none;rotation=-90;" parent="1" vertex="1">
          <mxGeometry x="668.5" y="1017" width="27" height="30" as="geometry" />
        </mxCell>
        <mxCell id="u9Ba9--OEbl625sA4hoY-214" value="&lt;font style=&quot;font-size: 11px;&quot; face=&quot;Times New Roman&quot;&gt;t&lt;sub style=&quot;font-size: 11px;&quot;&gt;5&lt;/sub&gt;&lt;/font&gt;" style="text;html=1;align=center;verticalAlign=middle;resizable=0;points=[];autosize=1;strokeColor=none;fillColor=none;rotation=-90;" parent="1" vertex="1">
          <mxGeometry x="728.1800000000001" y="1017" width="27" height="30" as="geometry" />
        </mxCell>
        <mxCell id="u9Ba9--OEbl625sA4hoY-215" value="&lt;font style=&quot;font-size: 11px;&quot; face=&quot;Times New Roman&quot;&gt;t&lt;sub&gt;2&lt;/sub&gt;&lt;/font&gt;" style="text;html=1;align=center;verticalAlign=middle;resizable=0;points=[];autosize=1;strokeColor=none;fillColor=none;rotation=-90;" parent="1" vertex="1">
          <mxGeometry x="796.5" y="1017" width="27" height="30" as="geometry" />
        </mxCell>
        <mxCell id="u9Ba9--OEbl625sA4hoY-216" value="&lt;font style=&quot;font-size: 11px;&quot; face=&quot;Times New Roman&quot;&gt;t&lt;sub style=&quot;font-size: 11px;&quot;&gt;4&lt;/sub&gt;&lt;/font&gt;" style="text;html=1;align=center;verticalAlign=middle;resizable=0;points=[];autosize=1;strokeColor=none;fillColor=none;rotation=-90;" parent="1" vertex="1">
          <mxGeometry x="860" y="1017" width="27" height="30" as="geometry" />
        </mxCell>
        <mxCell id="u9Ba9--OEbl625sA4hoY-217" value="" style="rounded=1;whiteSpace=wrap;html=1;dashed=1;fillColor=none;strokeColor=#2ce82f;" parent="1" vertex="1">
          <mxGeometry x="368" y="648" width="273" height="332" as="geometry" />
        </mxCell>
        <mxCell id="u9Ba9--OEbl625sA4hoY-218" value="Current_span_pool" style="text;html=1;strokeColor=none;fillColor=none;align=center;verticalAlign=middle;whiteSpace=wrap;rounded=0;rotation=-90;" parent="1" vertex="1">
          <mxGeometry x="586" y="733" width="60" height="30" as="geometry" />
        </mxCell>
        <mxCell id="u9Ba9--OEbl625sA4hoY-219" value="" style="rounded=1;whiteSpace=wrap;html=1;dashed=1;fillColor=none;strokeColor=#0C46E8;" parent="1" vertex="1">
          <mxGeometry x="654.31" y="648" width="272.87" height="332" as="geometry" />
        </mxCell>
        <mxCell id="u9Ba9--OEbl625sA4hoY-220" value="Previous_span_pool" style="text;html=1;strokeColor=none;fillColor=none;align=center;verticalAlign=middle;whiteSpace=wrap;rounded=0;rotation=-90;" parent="1" vertex="1">
          <mxGeometry x="873" y="725" width="60" height="30" as="geometry" />
        </mxCell>
        <mxCell id="u9Ba9--OEbl625sA4hoY-221" value="" style="rounded=1;whiteSpace=wrap;html=1;dashed=1;fillColor=none;strokeColor=#2ce82f;" parent="1" vertex="1">
          <mxGeometry x="382.63" y="375" width="251.37" height="137" as="geometry" />
        </mxCell>
        <mxCell id="u9Ba9--OEbl625sA4hoY-223" value="" style="rounded=1;whiteSpace=wrap;html=1;dashed=1;fillColor=none;strokeColor=#0c46e8;" parent="1" vertex="1">
          <mxGeometry x="661.95" y="375" width="251.37" height="137" as="geometry" />
        </mxCell>
        <mxCell id="XD2-V8QEW1LzV1P3F_-f-84" value="i&lt;sub&gt;4&lt;/sub&gt;" style="ellipse;whiteSpace=wrap;html=1;aspect=fixed;fontFamily=Times New Roman;fillColor=#d5e8d4;strokeColor=#82b366;rotation=-90;" parent="1" vertex="1">
          <mxGeometry x="638.5" y="1198" width="44" height="44" as="geometry" />
        </mxCell>
        <mxCell id="XD2-V8QEW1LzV1P3F_-f-83" value="i&lt;sub&gt;3&lt;/sub&gt;" style="ellipse;whiteSpace=wrap;html=1;aspect=fixed;fontFamily=Times New Roman;fillColor=#d5e8d4;strokeColor=#82b366;rotation=-90;" parent="1" vertex="1">
          <mxGeometry x="581.5" y="1198" width="44" height="44" as="geometry" />
        </mxCell>
        <mxCell id="XD2-V8QEW1LzV1P3F_-f-82" value="i&lt;sub&gt;2&lt;/sub&gt;" style="ellipse;whiteSpace=wrap;html=1;aspect=fixed;fontFamily=Times New Roman;fillColor=#d5e8d4;strokeColor=#82b366;rotation=-90;" parent="1" vertex="1">
          <mxGeometry x="517.5" y="1198" width="44" height="44" as="geometry" />
        </mxCell>
        <mxCell id="XD2-V8QEW1LzV1P3F_-f-81" value="i&lt;span style=&quot;font-size: 10px;&quot;&gt;&lt;sub&gt;1&lt;/sub&gt;&lt;/span&gt;" style="ellipse;whiteSpace=wrap;html=1;aspect=fixed;fontFamily=Times New Roman;fillColor=#d5e8d4;strokeColor=#82b366;rotation=-90;" parent="1" vertex="1">
          <mxGeometry x="456" y="1198" width="44" height="44" as="geometry" />
        </mxCell>
      </root>
    </mxGraphModel>
  </diagram>
</mxfile>
